<?xml version="1.0" encoding="UTF-8"?><svg id="Layer_2" xmlns="http://www.w3.org/2000/svg" width="178.83" height="192.06" viewBox="0 0 178.83 192.06"><g id="Layer_1-2"><path d="m105.44,0h-27.35c-.82,0-1.55.5-1.85,1.25L16.98,148.18c-.4.99.33,2.06,1.39,2.06h27.34c.82,0,1.55-.5,1.85-1.25L106.83,2.06c.4-.99-.33-2.06-1.39-2.06Z"/><path d="m9.77,166.03L.11,190c-.4.99.33,2.06,1.39,2.06h128.66c1.06,0,1.79-1.07,1.39-2.06l-9.62-23.97c-.46-1.14-1.56-1.88-2.78-1.88H12.56c-1.22,0-2.32.74-2.78,1.88Z"/><path d="m111.47,29.54l-13.74,34.08c-.29.72-.29,1.52,0,2.24l50.14,124.94c.3.76,1.04,1.26,1.86,1.26h27.61c1.06,0,1.79-1.07,1.39-2.06L114.25,29.54c-.5-1.25-2.28-1.25-2.78,0Z"/></g></svg>